<svg width="22" height="22" viewBox="0 0 22 22" fill="none" xmlns="http://www.w3.org/2000/svg">
<path d="M4.00002 5.41399L0.757019 2.17199L2.17202 0.756989L5.41402 3.99999H20.656C20.8119 3.99998 20.9656 4.0364 21.1049 4.10636C21.2442 4.17631 21.3652 4.27785 21.4583 4.40288C21.5513 4.52792 21.6139 4.67297 21.6409 4.82648C21.668 4.97998 21.6588 5.13768 21.614 5.28699L19.214 13.287C19.1523 13.4931 19.0257 13.6737 18.8531 13.8022C18.6806 13.9306 18.4712 14 18.256 14H6.00002V16H17V18H5.00002C4.7348 18 4.48045 17.8946 4.29291 17.7071C4.10538 17.5196 4.00002 17.2652 4.00002 17V5.41399ZM6.00002 5.99999V12H17.512L19.312 5.99999H6.00002ZM5.50002 22C5.10219 22 4.72066 21.842 4.43936 21.5606C4.15805 21.2793 4.00002 20.8978 4.00002 20.5C4.00002 20.1022 4.15805 19.7206 4.43936 19.4393C4.72066 19.158 5.10219 19 5.50002 19C5.89784 19 6.27937 19.158 6.56068 19.4393C6.84198 19.7206 7.00002 20.1022 7.00002 20.5C7.00002 20.8978 6.84198 21.2793 6.56068 21.5606C6.27937 21.842 5.89784 22 5.50002 22ZM17.5 22C17.1022 22 16.7207 21.842 16.4394 21.5606C16.1581 21.2793 16 20.8978 16 20.5C16 20.1022 16.1581 19.7206 16.4394 19.4393C16.7207 19.158 17.1022 19 17.5 19C17.8978 19 18.2794 19.158 18.5607 19.4393C18.842 19.7206 19 20.1022 19 20.5C19 20.8978 18.842 21.2793 18.5607 21.5606C18.2794 21.842 17.8978 22 17.5 22Z" fill="white"/>
</svg>
